# xmcd CD database file
#
# Track frame offsets:
#	150
#	21143
#	46039
#	59054
#	75271
#	90933
#	99449
#	123578
#	144047
#	163662
#	201687
#
# Disc length: 2948 seconds
#
# Revision: 0
# Processed by: cddbd v1.5.2PL0 Copyright (c) Steve Scherf et al.
# Submitted via: CDex 1.51
#
DISCID=860b820b
DTITLE=Babis Papadopoulos - Skines Apo Ena Taksidi
DYEAR=2008
DGENRE=Jazz
TTITLE0=Meta...
TTITLE1=Kati Gia To Dromo
TTITLE2=Sto Dromo
TTITLE3=Melo 1
TTITLE4=Melo 2
TTITLE5=Pali Esy
TTITLE6=3 7 2
TTITLE7=, Teleutaio Vrady
TTITLE8=Proino
TTITLE9=Dyo Logia S' Ena Bar
TTITLE10=Au Revoir
EXTD=YEAR: 2008
EXTT0=
EXTT1=
EXTT2=
EXTT3=
EXTT4=
EXTT5=
EXTT6=
EXTT7=
EXTT8=
EXTT9=
EXTT10=
PLAYORDER=
